<svg xmlns="http://www.w3.org/2000/svg" xmlns:xlink="http://www.w3.org/1999/xlink" width="100" zoomAndPan="magnify" viewBox="0 0 75 74.999997" height="100" preserveAspectRatio="xMidYMid meet" version="1.0"><defs><clipPath id="b62f986b1e"><path d="M 1.734375 0 L 72.984375 0 L 72.984375 62 L 1.734375 62 Z M 1.734375 0 " clip-rule="nonzero"/></clipPath></defs><g clip-path="url(#b62f986b1e)"><path fill="#efd9bf" d="M 62.996094 54.546875 L 27.707031 54.546875 C 27.296875 54.558594 26.902344 54.492188 26.523438 54.347656 C 26.140625 54.199219 25.804688 53.984375 25.511719 53.699219 C 25.21875 53.417969 24.992188 53.085938 24.832031 52.710938 C 24.675781 52.335938 24.59375 51.945312 24.59375 51.535156 C 24.59375 51.128906 24.675781 50.738281 24.832031 50.363281 C 24.992188 49.984375 25.21875 49.65625 25.511719 49.371094 C 25.804688 49.089844 26.140625 48.875 26.523438 48.726562 C 26.902344 48.582031 27.296875 48.515625 27.707031 48.527344 L 62.996094 48.527344 C 63.382812 48.527344 63.761719 48.464844 64.128906 48.335938 C 64.492188 48.207031 64.828125 48.023438 65.132812 47.78125 C 65.433594 47.535156 65.6875 47.25 65.894531 46.921875 C 66.097656 46.59375 66.242188 46.238281 66.328125 45.859375 L 72.746094 16.980469 C 72.800781 16.730469 72.828125 16.480469 72.828125 16.222656 C 72.824219 15.96875 72.796875 15.71875 72.738281 15.46875 C 72.679688 15.21875 72.59375 14.980469 72.484375 14.75 C 72.371094 14.523438 72.234375 14.308594 72.074219 14.109375 C 71.914062 13.910156 71.734375 13.730469 71.535156 13.574219 C 71.335938 13.414062 71.121094 13.28125 70.890625 13.167969 C 70.660156 13.058594 70.421875 12.976562 70.171875 12.917969 C 69.921875 12.863281 69.671875 12.835938 69.414062 12.835938 L 21.285156 12.835938 C 21.042969 12.835938 20.800781 12.859375 20.558594 12.910156 L 18.195312 2.640625 C 18.109375 2.265625 17.960938 1.914062 17.753906 1.589844 C 17.550781 1.261719 17.296875 0.980469 16.992188 0.742188 C 16.691406 0.5 16.359375 0.316406 15.996094 0.191406 C 15.632812 0.0625 15.257812 0 14.871094 0 L 5.242188 0 C 4.792969 0 4.355469 0.0859375 3.9375 0.257812 C 3.519531 0.433594 3.152344 0.679688 2.832031 1 C 2.511719 1.316406 2.265625 1.6875 2.09375 2.105469 C 1.921875 2.523438 1.835938 2.957031 1.835938 3.410156 C 1.835938 3.859375 1.921875 4.296875 2.09375 4.714844 C 2.265625 5.132812 2.511719 5.5 2.832031 5.820312 C 3.152344 6.140625 3.519531 6.386719 3.9375 6.558594 C 4.355469 6.730469 4.792969 6.816406 5.242188 6.816406 L 12.15625 6.816406 L 20.855469 44.511719 C 20.15625 45.191406 19.570312 45.960938 19.097656 46.816406 C 18.625 47.671875 18.289062 48.578125 18.089844 49.535156 C 17.886719 50.492188 17.832031 51.457031 17.917969 52.429688 C 18.007812 53.402344 18.234375 54.339844 18.601562 55.246094 C 18.96875 56.152344 19.460938 56.984375 20.078125 57.742188 C 20.695312 58.5 21.40625 59.152344 22.21875 59.695312 C 23.03125 60.242188 23.902344 60.65625 24.835938 60.941406 C 25.773438 61.222656 26.730469 61.363281 27.707031 61.363281 L 62.996094 61.363281 C 63.449219 61.363281 63.882812 61.277344 64.300781 61.105469 C 64.71875 60.929688 65.085938 60.683594 65.40625 60.363281 C 65.726562 60.046875 65.972656 59.675781 66.144531 59.257812 C 66.320312 58.839844 66.40625 58.40625 66.40625 57.953125 C 66.40625 57.503906 66.320312 57.066406 66.144531 56.648438 C 65.972656 56.230469 65.726562 55.863281 65.40625 55.542969 C 65.085938 55.222656 64.71875 54.976562 64.300781 54.804688 C 63.882812 54.632812 63.449219 54.546875 62.996094 54.546875 Z M 62.996094 54.546875 " fill-opacity="1" fill-rule="nonzero"/></g><path fill="#efd9bf" d="M 37.328125 69.886719 C 37.328125 70.222656 37.296875 70.554688 37.230469 70.882812 C 37.164062 71.214844 37.070312 71.53125 36.941406 71.84375 C 36.8125 72.152344 36.652344 72.449219 36.46875 72.726562 C 36.28125 73.007812 36.070312 73.265625 35.832031 73.503906 C 35.59375 73.738281 35.335938 73.953125 35.058594 74.136719 C 34.777344 74.324219 34.484375 74.480469 34.171875 74.609375 C 33.863281 74.738281 33.542969 74.835938 33.214844 74.902344 C 32.882812 74.96875 32.550781 75 32.214844 75 C 31.878906 75 31.546875 74.96875 31.21875 74.902344 C 30.890625 74.835938 30.570312 74.738281 30.257812 74.609375 C 29.949219 74.480469 29.652344 74.324219 29.375 74.136719 C 29.097656 73.953125 28.835938 73.738281 28.601562 73.503906 C 28.363281 73.265625 28.152344 73.007812 27.964844 72.726562 C 27.777344 72.449219 27.621094 72.152344 27.492188 71.84375 C 27.363281 71.53125 27.265625 71.214844 27.199219 70.882812 C 27.136719 70.554688 27.101562 70.222656 27.101562 69.886719 C 27.101562 69.550781 27.136719 69.21875 27.199219 68.890625 C 27.265625 68.558594 27.363281 68.238281 27.492188 67.929688 C 27.621094 67.621094 27.777344 67.324219 27.964844 67.046875 C 28.152344 66.765625 28.363281 66.507812 28.601562 66.269531 C 28.835938 66.03125 29.097656 65.820312 29.375 65.632812 C 29.652344 65.449219 29.949219 65.289062 30.257812 65.160156 C 30.570312 65.035156 30.890625 64.9375 31.21875 64.871094 C 31.546875 64.804688 31.878906 64.773438 32.214844 64.773438 C 32.550781 64.773438 32.882812 64.804688 33.214844 64.871094 C 33.542969 64.9375 33.863281 65.035156 34.171875 65.160156 C 34.484375 65.289062 34.777344 65.449219 35.058594 65.632812 C 35.335938 65.820312 35.59375 66.03125 35.832031 66.269531 C 36.070312 66.507812 36.28125 66.765625 36.46875 67.046875 C 36.652344 67.324219 36.8125 67.621094 36.941406 67.929688 C 37.070312 68.238281 37.164062 68.558594 37.230469 68.890625 C 37.296875 69.21875 37.328125 69.550781 37.328125 69.886719 Z M 37.328125 69.886719 " fill-opacity="1" fill-rule="nonzero"/><path fill="#efd9bf" d="M 61.191406 69.886719 C 61.191406 70.222656 61.160156 70.554688 61.09375 70.882812 C 61.03125 71.214844 60.933594 71.53125 60.804688 71.84375 C 60.675781 72.152344 60.519531 72.449219 60.332031 72.726562 C 60.144531 73.007812 59.933594 73.265625 59.695312 73.503906 C 59.457031 73.738281 59.199219 73.953125 58.921875 74.136719 C 58.640625 74.324219 58.347656 74.480469 58.035156 74.609375 C 57.726562 74.738281 57.40625 74.835938 57.078125 74.902344 C 56.746094 74.96875 56.414062 75 56.078125 75 C 55.742188 75 55.410156 74.96875 55.082031 74.902344 C 54.753906 74.835938 54.433594 74.738281 54.121094 74.609375 C 53.8125 74.480469 53.519531 74.324219 53.238281 74.136719 C 52.960938 73.953125 52.699219 73.738281 52.464844 73.503906 C 52.226562 73.265625 52.015625 73.007812 51.828125 72.726562 C 51.640625 72.449219 51.484375 72.152344 51.355469 71.84375 C 51.226562 71.53125 51.128906 71.214844 51.0625 70.882812 C 51 70.554688 50.964844 70.222656 50.964844 69.886719 C 50.964844 69.550781 51 69.21875 51.0625 68.890625 C 51.128906 68.558594 51.226562 68.238281 51.355469 67.929688 C 51.484375 67.621094 51.640625 67.324219 51.828125 67.046875 C 52.015625 66.765625 52.226562 66.507812 52.464844 66.269531 C 52.699219 66.03125 52.960938 65.820312 53.238281 65.632812 C 53.519531 65.449219 53.8125 65.289062 54.121094 65.160156 C 54.433594 65.035156 54.753906 64.9375 55.082031 64.871094 C 55.410156 64.804688 55.742188 64.773438 56.078125 64.773438 C 56.414062 64.773438 56.746094 64.804688 57.078125 64.871094 C 57.40625 64.9375 57.726562 65.035156 58.035156 65.160156 C 58.347656 65.289062 58.640625 65.449219 58.921875 65.632812 C 59.199219 65.820312 59.457031 66.03125 59.695312 66.269531 C 59.933594 66.507812 60.144531 66.765625 60.332031 67.046875 C 60.519531 67.324219 60.675781 67.621094 60.804688 67.929688 C 60.933594 68.238281 61.03125 68.558594 61.09375 68.890625 C 61.160156 69.21875 61.191406 69.550781 61.191406 69.886719 Z M 61.191406 69.886719 " fill-opacity="1" fill-rule="nonzero"/></svg>