<svg xmlns="http://www.w3.org/2000/svg" xmlns:xlink="http://www.w3.org/1999/xlink" width="100" zoomAndPan="magnify" viewBox="0 0 75 74.999997" height="100" preserveAspectRatio="xMidYMid meet" version="1.0"><defs><clipPath id="74d78e0a5f"><path d="M 1 3.421875 L 74 3.421875 L 74 37 L 1 37 Z M 1 3.421875 " clip-rule="nonzero"/></clipPath><clipPath id="1661ddc6c9"><path d="M 9 20 L 67 20 L 67 71.671875 L 9 71.671875 Z M 9 20 " clip-rule="nonzero"/></clipPath></defs><g clip-path="url(#74d78e0a5f)"><path fill="#efd9bf" d="M 71.851562 27.359375 L 60.308594 18.867188 L 60.308594 8.738281 C 60.308594 7.152344 59.019531 5.867188 57.433594 5.867188 L 52.761719 5.867188 C 51.175781 5.867188 49.886719 7.152344 49.886719 8.738281 L 49.886719 11.199219 L 41.085938 4.726562 C 39.175781 3.320312 36.050781 3.320312 34.140625 4.726562 L 3.371094 27.359375 C 1.460938 28.765625 1.050781 31.480469 2.457031 33.394531 L 3.308594 34.546875 C 4.710938 36.457031 7.425781 36.871094 9.332031 35.464844 L 34.140625 17.210938 C 36.050781 15.804688 39.175781 15.804688 41.085938 17.210938 L 65.890625 35.464844 C 67.800781 36.871094 70.511719 36.457031 71.914062 34.546875 L 72.769531 33.394531 C 74.171875 31.480469 73.761719 28.765625 71.851562 27.359375 Z M 71.851562 27.359375 " fill-opacity="1" fill-rule="nonzero"/></g><g clip-path="url(#1661ddc6c9)"><path fill="#efd9bf" d="M 62.648438 37.054688 L 41.078125 21.113281 C 39.171875 19.703125 36.054688 19.703125 34.144531 21.113281 L 12.578125 37.054688 C 10.667969 38.464844 9.109375 40.527344 9.109375 41.644531 L 9.109375 64.757812 C 9.109375 68.511719 12.324219 71.554688 16.296875 71.554688 L 29.46875 71.554688 L 29.46875 51.109375 C 29.46875 49.53125 30.761719 48.238281 32.339844 48.238281 L 42.878906 48.238281 C 44.460938 48.238281 45.753906 49.53125 45.753906 51.109375 L 45.753906 71.554688 L 58.925781 71.554688 C 62.894531 71.554688 66.109375 68.511719 66.109375 64.757812 L 66.109375 41.644531 C 66.113281 40.527344 64.554688 38.464844 62.648438 37.054688 Z M 62.648438 37.054688 " fill-opacity="1" fill-rule="nonzero"/></g></svg>