<svg xmlns="http://www.w3.org/2000/svg" xmlns:xlink="http://www.w3.org/1999/xlink" width="100" zoomAndPan="magnify" viewBox="0 0 75 74.999997" height="100" preserveAspectRatio="xMidYMid meet" version="1.0"><defs><clipPath id="6b85c483c0"><path d="M 3.328125 39 L 71.578125 39 L 71.578125 75 L 3.328125 75 Z M 3.328125 39 " clip-rule="nonzero"/></clipPath></defs><path fill="#efd9bf" d="M 37.5 38.902344 C 47.539062 38.902344 55.707031 28.246094 55.707031 18.207031 C 55.707031 8.167969 47.539062 0 37.5 0 C 27.460938 0 19.292969 8.167969 19.292969 18.207031 C 19.292969 28.246094 27.460938 38.902344 37.5 38.902344 Z M 37.5 38.902344 " fill-opacity="1" fill-rule="nonzero"/><g clip-path="url(#6b85c483c0)"><path fill="#efd9bf" d="M 51.167969 39.089844 C 47.636719 41.78125 43.230469 43.382812 38.457031 43.382812 L 36.542969 43.382812 C 31.769531 43.382812 27.363281 41.78125 23.832031 39.089844 C 12.300781 40.953125 3.492188 50.949219 3.492188 63.003906 C 3.492188 69.628906 18.71875 75 37.5 75 C 56.28125 75 71.507812 69.628906 71.507812 63.003906 C 71.507812 50.949219 62.699219 40.953125 51.167969 39.089844 Z M 51.167969 39.089844 " fill-opacity="1" fill-rule="nonzero"/></g></svg>